<?xml version="1.0" encoding="UTF-8" standalone="no" ?>
<!DOCTYPE svg PUBLIC "-//W3C//DTD SVG 1.1//EN" "http://www.w3.org/Graphics/SVG/1.1/DTD/svg11.dtd">
<svg xmlns="http://www.w3.org/2000/svg" xmlns:xlink="http://www.w3.org/1999/xlink" version="1.1" width="640" height="480" viewBox="0 0 640 480" xml:space="preserve">
<desc>Created with Fabric.js 3.6.6</desc>
<defs>
</defs>
<g transform="matrix(7.18 0 0 7.18 165.44 186.28)"  >
<path style="stroke: none; stroke-width: 1; stroke-dasharray: none; stroke-linecap: butt; stroke-dashoffset: 0; stroke-linejoin: miter; stroke-miterlimit: 4; fill: rgb(202,227,246); fill-rule: nonzero; opacity: 1;"  transform=" translate(-45.94, -46.42)" d="M 50.29 40.29 c -2.48 1.5 -4.72 2.77 -6.85 4.2 a 4.45 4.45 0 0 0 3.37 8 a 4.54 4.54 0 0 0 3.47 -4.36 C 50.33 45.65 50.29 43.18 50.29 40.29 Z" stroke-linecap="round" />
</g>
<g transform="matrix(7.18 0 0 7.18 320.66 186.27)"  >
<path style="stroke: none; stroke-width: 1; stroke-dasharray: none; stroke-linecap: butt; stroke-dashoffset: 0; stroke-linejoin: miter; stroke-miterlimit: 4; fill: rgb(202,227,246); fill-rule: nonzero; opacity: 1;"  transform=" translate(-67.57, -46.42)" d="M 71.91 40.29 c -2.48 1.5 -4.72 2.77 -6.85 4.2 a 4.45 4.45 0 0 0 3.36 8 a 4.51 4.51 0 0 0 3.47 -4.36 C 72 45.65 71.91 43.18 71.91 40.29 Z" stroke-linecap="round" />
</g>
<g transform="matrix(7.18 0 0 7.18 222.84 303.81)"  >
<path style="stroke: none; stroke-width: 1; stroke-dasharray: none; stroke-linecap: butt; stroke-dashoffset: 0; stroke-linejoin: miter; stroke-miterlimit: 4; fill: rgb(202,227,246); fill-rule: nonzero; opacity: 1;"  transform=" translate(-53.94, -62.8)" d="M 58.29 56.67 c -2.48 1.51 -4.72 2.78 -6.85 4.2 a 4.45 4.45 0 0 0 3.37 8 a 4.52 4.52 0 0 0 3.47 -4.36 C 58.33 62 58.29 59.56 58.29 56.67 Z" stroke-linecap="round" />
</g>
<g transform="matrix(7.18 0 0 7.18 165.44 186.28)"  >
<path style="stroke: rgb(0,0,0); stroke-width: 3; stroke-dasharray: none; stroke-linecap: butt; stroke-dashoffset: 0; stroke-linejoin: miter; stroke-miterlimit: 10; fill: none; fill-rule: nonzero; opacity: 1;"  transform=" translate(-45.94, -46.42)" d="M 50.29 40.29 c -2.48 1.5 -4.72 2.77 -6.85 4.2 a 4.45 4.45 0 0 0 3.37 8 a 4.54 4.54 0 0 0 3.47 -4.36 C 50.33 45.65 50.29 43.18 50.29 40.29 Z" stroke-linecap="round" />
</g>
<g transform="matrix(7.18 0 0 7.18 320.66 186.27)"  >
<path style="stroke: rgb(0,0,0); stroke-width: 3; stroke-dasharray: none; stroke-linecap: butt; stroke-dashoffset: 0; stroke-linejoin: miter; stroke-miterlimit: 10; fill: none; fill-rule: nonzero; opacity: 1;"  transform=" translate(-67.57, -46.42)" d="M 71.91 40.29 c -2.48 1.5 -4.72 2.77 -6.85 4.2 a 4.45 4.45 0 0 0 3.36 8 a 4.51 4.51 0 0 0 3.47 -4.36 C 72 45.65 71.91 43.18 71.91 40.29 Z" stroke-linecap="round" />
</g>
<g transform="matrix(7.18 0 0 7.18 222.85 303.82)"  >
<path style="stroke: rgb(0,0,0); stroke-width: 3; stroke-dasharray: none; stroke-linecap: butt; stroke-dashoffset: 0; stroke-linejoin: miter; stroke-miterlimit: 10; fill: none; fill-rule: nonzero; opacity: 1;"  transform=" translate(-53.94, -62.8)" d="M 58.29 56.67 c -2.48 1.51 -4.72 2.78 -6.85 4.2 a 4.45 4.45 0 0 0 3.37 8 a 4.52 4.52 0 0 0 3.47 -4.36 C 58.33 62 58.29 59.56 58.29 56.67 Z" stroke-linecap="round" />
</g>
<g transform="matrix(7.18 0 0 7.18 477.66 187.27)"  >
<path style="stroke: none; stroke-width: 1; stroke-dasharray: none; stroke-linecap: butt; stroke-dashoffset: 0; stroke-linejoin: miter; stroke-miterlimit: 4; fill: rgb(202,227,246); fill-rule: nonzero; opacity: 1;"  transform=" translate(-67.57, -46.42)" d="M 71.91 40.29 c -2.48 1.5 -4.72 2.77 -6.85 4.2 a 4.45 4.45 0 0 0 3.36 8 a 4.51 4.51 0 0 0 3.47 -4.36 C 72 45.65 71.91 43.18 71.91 40.29 Z" stroke-linecap="round" />
</g>
<g transform="matrix(7.18 0 0 7.18 379.84 304.81)"  >
<path style="stroke: none; stroke-width: 1; stroke-dasharray: none; stroke-linecap: butt; stroke-dashoffset: 0; stroke-linejoin: miter; stroke-miterlimit: 4; fill: rgb(202,227,246); fill-rule: nonzero; opacity: 1;"  transform=" translate(-53.94, -62.8)" d="M 58.29 56.67 c -2.48 1.51 -4.72 2.78 -6.85 4.2 a 4.45 4.45 0 0 0 3.37 8 a 4.52 4.52 0 0 0 3.47 -4.36 C 58.33 62 58.29 59.56 58.29 56.67 Z" stroke-linecap="round" />
</g>
<g transform="matrix(7.18 0 0 7.18 477.66 187.27)"  >
<path style="stroke: rgb(0,0,0); stroke-width: 3; stroke-dasharray: none; stroke-linecap: butt; stroke-dashoffset: 0; stroke-linejoin: miter; stroke-miterlimit: 10; fill: none; fill-rule: nonzero; opacity: 1;"  transform=" translate(-67.57, -46.42)" d="M 71.91 40.29 c -2.48 1.5 -4.72 2.77 -6.85 4.2 a 4.45 4.45 0 0 0 3.36 8 a 4.51 4.51 0 0 0 3.47 -4.36 C 72 45.65 71.91 43.18 71.91 40.29 Z" stroke-linecap="round" />
</g>
<g transform="matrix(7.18 0 0 7.18 379.85 304.82)"  >
<path style="stroke: rgb(0,0,0); stroke-width: 3; stroke-dasharray: none; stroke-linecap: butt; stroke-dashoffset: 0; stroke-linejoin: miter; stroke-miterlimit: 10; fill: none; fill-rule: nonzero; opacity: 1;"  transform=" translate(-53.94, -62.8)" d="M 58.29 56.67 c -2.48 1.51 -4.72 2.78 -6.85 4.2 a 4.45 4.45 0 0 0 3.37 8 a 4.52 4.52 0 0 0 3.47 -4.36 C 58.33 62 58.29 59.56 58.29 56.67 Z" stroke-linecap="round" />
</g>
</svg>